<svg width="24" height="24" viewBox="0 0 24 24" fill="none" xmlns="http://www.w3.org/2000/svg">
<path d="M11.4726 20.3493C16.4302 20.3493 20.4492 16.3527 20.4492 11.4227C20.4492 6.49267 16.4302 2.49609 11.4726 2.49609C6.51503 2.49609 2.49609 6.49267 2.49609 11.4227C2.49609 16.3527 6.51503 20.3493 11.4726 20.3493Z" stroke="#342E34" stroke-width="1.2672" stroke-linecap="round" stroke-linejoin="round"/>
<path d="M3.18848 14.8585H5.60524C6.2462 14.8585 6.86091 14.6053 7.31414 14.1546C7.76737 13.7039 8.022 13.0926 8.022 12.4552V10.3952C8.022 9.7578 8.27662 9.1465 8.72985 8.6958C9.18308 8.24509 9.79779 7.99188 10.4388 7.99188C11.0797 7.99188 11.6944 7.73868 12.1477 7.28797C12.6009 6.83726 12.8555 6.22597 12.8555 5.58857V2.59473" stroke="#342E34" stroke-width="1.2672" stroke-linecap="round" stroke-linejoin="round"/>
<path d="M20.4461 11.2827C19.7547 10.9259 18.9879 10.7377 18.2089 10.7334H15.2673C14.6264 10.7334 14.0117 10.9866 13.5584 11.4373C13.1052 11.888 12.8506 12.4993 12.8506 13.1367C12.8506 13.7741 13.1052 14.3854 13.5584 14.8361C14.0117 15.2868 14.6264 15.54 15.2673 15.54C15.7252 15.54 16.1643 15.7209 16.488 16.0428C16.8117 16.3648 16.9936 16.8014 16.9936 17.2567V18.4515" stroke="#342E34" stroke-width="1.2672" stroke-linecap="round" stroke-linejoin="round"/>
<path d="M10.3346 19.5331C10.1921 19.8527 10.3362 20.2262 10.6563 20.3674C10.9765 20.5086 11.3516 20.3639 11.4941 20.0443L10.3346 19.5331ZM8.06994 18.2282L7.4902 17.9725V17.9725L8.06994 18.2282ZM6.0968 17.7604C5.77662 17.6192 5.40154 17.7638 5.25903 18.0834C5.11652 18.403 5.26056 18.7765 5.58074 18.9177L6.0968 17.7604ZM11.4941 20.0443C11.7099 19.5603 11.753 18.9531 11.4865 18.3982L10.3416 18.9473C10.4254 19.1217 10.4217 19.3377 10.3346 19.5331L11.4941 20.0443ZM11.4865 18.3982C11.4191 18.2578 11.2987 17.9753 11.1571 17.7423C11.0111 17.502 10.7786 17.1975 10.4041 17.0323L9.88804 18.1897C9.91271 18.2006 9.97661 18.2445 10.0711 18.4C10.1699 18.5626 10.2339 18.723 10.3416 18.9473L11.4865 18.3982ZM10.4041 17.0323C9.87842 16.8005 9.28035 16.7485 8.73481 16.9107L9.09434 18.1231C9.3275 18.0538 9.6154 18.0695 9.88804 18.1897L10.4041 17.0323ZM8.73481 16.9107C8.18536 17.074 7.72458 17.4469 7.4902 17.9725L8.64968 18.4838C8.71822 18.3301 8.86509 18.1912 9.09434 18.1231L8.73481 16.9107ZM7.4902 17.9725C7.46493 18.0292 7.40486 18.0949 7.28686 18.13L7.64639 19.3424C8.0846 19.2122 8.45856 18.9124 8.64968 18.4838L7.4902 17.9725ZM7.28686 18.13C7.16494 18.1662 7.00361 18.1602 6.84502 18.0903L6.32896 19.2476C6.74059 19.4292 7.21209 19.4715 7.64639 19.3424L7.28686 18.13ZM6.84502 18.0903L6.0968 17.7604L5.58074 18.9177L6.32896 19.2476L6.84502 18.0903Z" fill="#342E34"/>
</svg>
